<?xml version="1.0" encoding="utf-8"?>
<!-- Generator: Adobe Illustrator 19.0.0, SVG Export Plug-In . SVG Version: 6.00 Build 0)  -->
<svg version="1.1" id="Layer_1" xmlns="http://www.w3.org/2000/svg" xmlns:xlink="http://www.w3.org/1999/xlink" x="0px" y="0px"
	 viewBox="0 0 319.9 733.2" style="enable-background:new 0 0 319.9 733.2;" xml:space="preserve">
<style type="text/css">
	.st0{fill:rgba(40,40,40, 0.8);}
</style>
<path id="XMLID_15_" class="st0" d="M165.9,0c1.9,0.5,3.8,0.9,5.8,1.4c14,3.6,22.4,16,20.8,30.3c-0.3,3.1-0.4,6.2-0.5,9.3
	c-0.1,2-0.4,4,2.7,4.3c0.6,0.1,1.5,1.9,1.5,3c0.3,8.6-1,16.7-8,22.8c-1.3,1.2-2.6,2.9-3,4.6c-2,8.5-2.8,17.2-1.5,25.9
	c0.8,5.6,3.6,10.3,8.7,12.8c9.8,5,19.9,9.6,29.9,14.3c3.5,1.6,7.2,2.8,10.6,4.6c10.8,5.8,16,15.1,16.2,27.1
	c0.1,6.6-0.1,13.2-0.7,19.8c-2.2,25.7,2.1,50.3,11.9,74.1c4.6,11,6.1,22.8,7.6,34.5c2,15.7,5.4,31.1,11.2,45.9
	c1.9,4.9,4.9,8.3,10.3,9.1c14.2,2.1,21.2,13.8,30.8,22.9c-4.2,2.6-7.6,1-10.7-0.3c-3.3-1.3-6.3-3.4-10.3-5.7
	c0.4,2.8,0.2,4.9,0.9,6.5c2.9,7,5.9,13.9,9,20.9c1.3,3.1,2.9,6.1,4.2,9.2c2.3,5.5,2.1,6.6-2.1,10.8c-1,1-2.1,2-3.4,3.2
	c-1.2-1-2.2-1.9-3.2-2.8c-1-0.9-2-1.8-3.5-3.2c0.3,2.5,0.6,4.4,0.6,6.2c0,1-0.5,2.6-1.1,2.9c-1,0.3-2.7,0-3.3-0.7
	c-2.7-3.2-5.2-6.6-7.5-10.2c-2-3.2-3.6-6.7-6-11c0.3,7.4,2.6,13.6,0,21.1c-1.5-2-2.7-3.2-3.2-4.6c-6.3-15.7-12.4-31.4-18.7-47.1
	c-2.8-6.9-5.2-14-8.6-20.6c-12.1-23.7-22.1-48.1-28.2-74.1c-1.5-6.4-2.3-13-3.5-19.5c-0.2-1.2-0.6-2.4-1.8-3.6
	c-0.4,1.9-1.2,3.9-1.1,5.8c0.5,14.2,0,28.5,2.1,42.5c3.7,24.9,9.1,49.6,13.8,74.4c3.6,18.5,4.3,37.2,3.1,55.9
	c-1.9,27.6-4.8,55.1-6.6,82.7c-0.5,8,1,16.1,2.2,24.1c3,18.9,3.4,37.7,1.3,56.7c-2.6,23.1-5.8,46.2-8.2,69.4
	c-1.5,14.8-0.1,29.7,3.3,44.2c0.9,4,3.6,7.5,5.7,11.2c1.7,3.1,4.1,6,5.5,9.3c2.5,5.8,0.5,10.6-5.7,11.7c-6.9,1.2-14.1,1.1-21.1,1.4
	c-1.5,0.1-3-0.3-4.4-0.5c-5.4-1-7.3-3-7.5-8.6c-0.6-21.2-2.4-42.4-1.1-63.5c1.1-18.8-2.7-36.4-6.7-54.2c-3.6-15.7-6-31.6-5.5-47.7
	c0.4-13.3-1.5-26.1-5-39c-3.7-13.6-4.8-27.9-7.1-41.9c-1.8-11.2-3.9-22.3-5.4-33.5c-1.9-14.6-3.4-29.2-5.1-43.8
	c-0.3-2.3-0.5-4.7-0.7-7.3c-3.4,0-6.7,0-10.5,0c-0.7,6.8-1.3,13.7-2.2,20.6c-2.2,16.4-4.7,32.7-7,49.1c-1.7,12.4-3,25-5.1,37.4
	c-1.6,9.3-4.2,18.4-6.1,27.6c-1.2,5.6-2.4,11.2-2.7,16.9c-0.8,13.3-0.4,26.7-1.8,39.9c-1.2,11.4-3.9,22.8-6.8,34
	c-3.9,15.2-4.5,30.4-3.5,45.9c0.8,12.8,0,25.7-0.3,38.5c-0.2,6.9-0.7,13.7-1.2,20.5c-0.4,6-2.6,8.8-8.7,9.1
	c-7.2,0.4-14.4,0.6-21.6-0.1c-8.6-0.8-11.1-5.7-7.8-13.6c0.9-2.2,1.9-4.4,3.4-6.2c7.3-9.1,8.9-20,10.1-31.1
	c2.1-19.9-0.5-39.5-3.4-59.2c-3.4-22.9-6.6-45.9-5.5-69.2c0.5-10.5,2-21.1,3.7-31.5c1.9-11.5,0.5-22.9-0.5-34.3
	c-2.8-30.2-6.3-60.3-5.5-90.6c0.5-17.9,4.3-35.3,7.7-52.8c3.9-19.8,7.6-39.6,10.5-59.5c1.8-12.8,2.7-25.8,0.4-38.7
	c-0.1-0.6-0.3-1.1-0.5-1.7c-0.3,0-0.7-0.1-1-0.1c-0.7,3.2-1.5,6.5-2,9.7c-4.4,29.5-15.8,56.6-28.5,83.3
	c-5.5,11.5-9.8,23.6-14.6,35.5c-4.8,11.7-9.5,23.5-14.3,35.3c-0.7,1.7-1.9,3.3-3.4,4.8c-3.2-6.4-0.5-12.7-0.5-19.9
	c-2,3.7-3.5,6.8-5.2,9.7c-2.2,3.6-4.6,7.1-7.2,10.4c-0.8,1-2.8,1.2-4.2,1.7c-0.4-1.4-1-2.7-1.1-4.1c-0.1-1.4,0.4-2.9,0.8-5.2
	c-2.6,2.3-4.7,4.1-6.8,5.9c-0.5-0.4-1-0.6-1.3-1c-6.8-6-7-6.9-3.3-15.2c3.9-8.8,7.8-17.5,11.5-26.3c0.9-2.2,1.2-4.7,2-8.1
	c-7.4,3-12.8,9.4-21.4,6.7c1.5-1.9,2.6-3.6,4-4.9c4.6-4.5,9.1-9.4,14.1-13.3c3-2.3,7-3.9,10.7-4.6c6.7-1.4,10.5-4.8,12.8-11.3
	c5.6-15.8,9.3-32,11-48.6c1.3-12.1,4.3-23.7,8.7-35c7.2-18.3,11.1-37.2,10.6-56.9c-0.3-10-0.9-19.9-1.1-29.9c-0.1-3.2,0.4-6.5,1-9.6
	c1.7-9.3,7.2-15.8,15.6-19.7c7.7-3.6,15.7-6.4,23.3-9.9c5.1-2.3,10.1-4.8,14.8-7.9c6.8-4.4,10.5-10.9,10.4-19.2
	c-0.1-5.5-0.1-11-1.2-16.4c-0.8-3.8-2.7-7.8-5.2-10.8c-5-6.2-7-13-7.1-20.7c0-2.7,0.8-4.4,4.6-3.6c0-2.6,0-4.9,0-7.3
	c0-7.2-1.2-14.5,2-21.4c4.1-8.8,11-13.9,20.5-15.7c0.7-0.1,1.4-0.5,2.1-0.7C156.4,0,161.2,0,165.9,0z"/>
</svg>
